mtllib ./building1_LowDetail.mtl
# Unity Asset Buildr OBJ Exporter
 http://buildr.jasperstocker.com
g building1_LowDetail
v 8.361819 0 -9.026724
v -12.15148 0 -7.562393
v -14.26592 0 5.043052
v 9.243926 0 5.356688
v 8.361819 0 -9.026724
v 8.361819 25.2 -9.026724
v -12.15148 0 -7.562393
v -12.15148 25.2 -7.562393
v -12.15148 0 -7.562393
v -12.15148 25.2 -7.562393
v -14.26592 0 5.043052
v -14.26592 25.2 5.043052
v -14.26592 0 5.043052
v -14.26592 25.2 5.043052
v 9.243926 0 5.356688
v 9.243926 25.2 5.356688
v 9.243926 0 5.356688
v 9.243926 25.2 5.356688
v 8.361819 0 -9.026724
v 8.361819 25.2 -9.026724
v -12.15148 25.2 -7.562393
v 8.361819 25.2 -9.026724
v -2.202914 26.20336 -1.547344
v -14.26592 25.2 5.043052
v -12.15148 25.2 -7.562393
v -2.202914 26.20336 -1.547344
v 9.243926 25.2 5.356688
v -14.26592 25.2 5.043052
v -2.202914 26.20336 -1.547344
v 8.361819 25.2 -9.026724
v 9.243926 25.2 5.356688
v -2.202914 26.20336 -1.547344

vn 0 -1 0
vn 0 -0.9999999 0
vn 0 -1 0
vn 0 -1 0
vn -0.07120328 0 -0.9974619
vn -0.07120328 0 -0.9974619
vn -0.07120328 0 -0.9974619
vn -0.07120328 0 -0.9974619
vn -0.9862216 0 -0.1654296
vn -0.9862216 0 -0.1654296
vn -0.9862216 0 -0.1654296
vn -0.9862216 0 -0.1654296
vn -0.01333941 0 0.999911
vn -0.01333941 0 0.999911
vn -0.01333941 0 0.999911
vn -0.01333941 0 0.999911
vn 0.9981247 0 -0.06121305
vn 0.9981247 0 -0.06121305
vn 0.9981247 0 -0.06121305
vn 0.9981247 0 -0.06121305
vn -0.01053288 0.9889984 -0.1475515
vn -0.01053288 0.9889984 -0.1475515
vn -0.01053288 0.9889984 -0.1475515
vn -0.09117547 0.9957174 -0.01529385
vn -0.09117547 0.9957174 -0.01529385
vn -0.09117547 0.9957174 -0.01529385
vn -0.001961084 0.9891344 0.1470012
vn -0.001961084 0.9891344 0.1470012
vn -0.001961084 0.9891344 0.1470012
vn 0.09064411 0.9958678 -0.005559028
vn 0.09064411 0.9958678 -0.005559028
vn 0.09064411 0.9958678 -0.005559028

vt 0 0
vt 0 0
vt 0 0
vt 0 0
vt 0.3845167 0.02372175
vt 0.3845167 0.4276327
vt 0.7141448 0.02372175
vt 0.7141448 0.4276327
vt 0.002564514 0.4116044
vt 0.002564514 0.8155153
vt 0.20743 0.4116044
vt 0.20743 0.8155153
vt 0.002564514 0.002564514
vt 0.002564514 0.4064754
vt 0.3794188 0.002564514
vt 0.3794188 0.4064754
vt 0.766469 0.002564514
vt 0.766469 0.4064754
vt 0.9974425 0.002564514
vt 0.9974425 0.4064754
vt 0.7377288 0.002564514
vt 0.4081279 0.002564514
vt 0.5729284 0.003248506
vt 0.6753526 0.002564514
vt 0.4705041 0.002564514
vt 0.5729284 0.003248506
vt 0.76134 0.002564514
vt 0.3845167 0.002564514
vt 0.5729284 0.003248506
vt 0.6884056 0.002564514
vt 0.4574512 0.002564514
vt 0.5729284 0.003248506

g building1Atlased_LowDetail
usemtl building1Atlased_LowDetail
usemap building1Atlased_LowDetail
f 2/2/2 1/1/1 3/3/3
f 3/3/3 1/1/1 4/4/4
f 6/6/6 5/5/5 7/7/7
f 6/6/6 7/7/7 8/8/8
f 10/10/10 9/9/9 11/11/11
f 10/10/10 11/11/11 12/12/12
f 14/14/14 13/13/13 15/15/15
f 14/14/14 15/15/15 16/16/16
f 18/18/18 17/17/17 19/19/19
f 18/18/18 19/19/19 20/20/20
f 22/22/22 21/21/21 23/23/23
f 25/25/25 24/24/24 26/26/26
f 28/28/28 27/27/27 29/29/29
f 31/31/31 30/30/30 32/32/32
