mtllib ./opening do not enter.All files.mtl
g opening do not enter
v -132.0186 -24.18153 -56.62845
v -132.0548 -24.18153 -56.62845
v -132.0186 -24.03238 -56.62845
v -132.0548 -24.03238 -56.62845
v -132.0548 -24.18153 -56.62845
v -132.0548 -24.18153 -59.60769
v -132.0548 -24.03238 -56.62845
v -132.0548 -24.03238 -59.60769
v -132.0548 -24.18153 -59.60769
v -132.0186 -24.18153 -59.60769
v -132.0548 -24.03238 -59.60769
v -132.0186 -24.03238 -59.60769
v -132.0186 -24.18153 -59.60769
v -132.0186 -24.18153 -56.62845
v -132.0186 -24.03238 -59.60769
v -132.0186 -24.03238 -56.62845
v -132.0186 -24.03238 -56.62845
v -132.0548 -24.03238 -56.62845
v -132.0186 -24.03238 -59.60769
v -132.0548 -24.03238 -59.60769
v -132.0186 -24.18153 -59.60769
v -132.0548 -24.18153 -59.60769
v -132.0186 -24.18153 -56.62845
v -132.0548 -24.18153 -56.62845

vn 0 0 1
vn 0 0 1
vn 0 0 1
vn 0 0 1
vn -0.9999999 0 0
vn -0.9999999 0 0
vn -0.9999999 0 0
vn -0.9999999 0 0
vn 0 0 -1
vn 0 0 -1
vn 0 0 -1
vn 0 0 -1
vn 0.9999999 0 0
vn 0.9999999 0 0
vn 0.9999999 0 0
vn 0.9999999 0 0
vn 0 1 0
vn 0 1 0
vn 0 1 0
vn 0 1 0
vn 0 -1 0
vn 0 -1 0
vn 0 -1 0
vn 0 -1 0

vt 0.03625488 0
vt 0 0
vt 0.03625488 0.1491508
vt 0 0.1491508
vt 2.97924 0
vt 0 0
vt 2.97924 0.1491508
vt 0 0.1491508
vt 0.03625488 0
vt 0 0
vt 0.03625488 0.1491508
vt 0 0.1491508
vt 1.455676 -0.2656768
vt 1.455676 0.6818595
vt 1.530184 -0.2656768
vt 1.530184 0.6818595
vt 0.03625488 0
vt 0 0
vt 0.03625488 2.97924
vt 0 2.97924
vt 0.03625488 0
vt 0 0
vt 0.03625488 2.97924
vt 0 2.97924

usemtl Barrier1
usemap Barrier1
f 2/2/2 1/1/1 3/3/3
f 4/4/4 2/2/2 3/3/3
f 6/6/6 5/5/5 7/7/7
f 8/8/8 6/6/6 7/7/7
f 10/10/10 9/9/9 11/11/11
f 12/12/12 10/10/10 11/11/11
f 14/14/14 13/13/13 15/15/15
f 16/16/16 14/14/14 15/15/15
f 18/18/18 17/17/17 19/19/19
f 20/20/20 18/18/18 19/19/19
f 22/22/22 21/21/21 23/23/23
f 24/24/24 22/22/22 23/23/23
