mtllib ./lit archway_front.All files.mtl
g lit archway_front
v 57.91743 -25.1126 -68.11392
v 57.68678 -25.1126 -68.11392
v 57.91743 13.59162 -68.11392
v 57.68678 13.59162 -68.11392
v 57.68678 -25.1126 -68.11392
v 57.68678 -25.1126 -68.33598
v 57.68678 13.59162 -68.11392
v 57.68678 13.59162 -68.33598
v 57.68678 -25.1126 -68.33598
v 57.91743 -25.1126 -68.33598
v 57.68678 13.59162 -68.33598
v 57.91743 13.59162 -68.33598
v 57.91743 -25.1126 -68.33598
v 57.91743 -25.1126 -68.11392
v 57.91743 13.59162 -68.33598
v 57.91743 13.59162 -68.11392
v 57.91743 13.82194 -68.11392
v 57.68678 13.82194 -68.11392
v 57.91743 13.82194 -68.33598
v 57.68678 13.82194 -68.33598
v 57.91743 -25.1126 -68.33598
v 57.68678 -25.1126 -68.33598
v 57.91743 -25.1126 -68.11392
v 57.68678 -25.1126 -68.11392
v 57.91743 13.66737 -46.38174
v 57.68678 13.66737 -46.38174
v 57.91743 13.89768 -46.38174
v 57.68678 13.89768 -46.38174
v 57.91743 13.59162 -68.33598
v 57.91743 13.59162 -68.11392
v 57.91743 13.82194 -68.33598
v 57.91743 13.82194 -68.11392
v 57.68678 13.59162 -68.11392
v 57.68678 13.59162 -68.33598
v 57.68678 13.82194 -68.11392
v 57.68678 13.82194 -68.33598
v 57.68678 13.59162 -68.33598
v 57.91743 13.59162 -68.33598
v 57.68678 13.82194 -68.33598
v 57.91743 13.82194 -68.33598
v 57.91743 13.59162 -68.11392
v 57.68678 13.59162 -68.11392
v 57.91743 13.82194 -68.11392
v 57.68678 13.82194 -68.11392
v 57.91743 13.59162 -68.11392
v 57.68678 13.59162 -68.11392
v 57.91743 14.05792 -57.3774
v 57.68678 14.05792 -57.3774
v 57.91743 13.82194 -68.11392
v 57.91743 13.59162 -68.11392
v 57.91743 14.28823 -57.3774
v 57.91743 14.05792 -57.3774
v 57.68678 13.59162 -68.11392
v 57.68678 13.82194 -68.11392
v 57.68678 14.05792 -57.3774
v 57.68678 14.28823 -57.3774
v 57.68678 13.82194 -68.11392
v 57.91743 13.82194 -68.11392
v 57.68678 14.28823 -57.3774
v 57.91743 14.28823 -57.3774
v 57.91743 14.05792 -57.3774
v 57.68678 14.05792 -57.3774
v 57.91743 13.66737 -46.60867
v 57.68678 13.66737 -46.60867
v 57.91743 14.28823 -57.3774
v 57.91743 14.05792 -57.3774
v 57.91743 13.89768 -46.60867
v 57.91743 13.66737 -46.60867
v 57.68678 14.05792 -57.3774
v 57.68678 14.28823 -57.3774
v 57.68678 13.66737 -46.60867
v 57.68678 13.89768 -46.60867
v 57.68678 14.28823 -57.3774
v 57.91743 14.28823 -57.3774
v 57.68678 13.89768 -46.60867
v 57.91743 13.89768 -46.60867
v 57.91743 -26.06029 -46.60867
v 57.68678 -26.06029 -46.60867
v 57.91743 -26.06029 -46.38174
v 57.68678 -26.06029 -46.38174
v 57.91743 13.89768 -46.60867
v 57.91743 13.66737 -46.60867
v 57.91743 13.89768 -46.38174
v 57.91743 13.66737 -46.38174
v 57.68678 13.66737 -46.60867
v 57.68678 13.89768 -46.60867
v 57.68678 13.66737 -46.38174
v 57.68678 13.89768 -46.38174
v 57.68678 13.89768 -46.60867
v 57.91743 13.89768 -46.60867
v 57.68678 13.89768 -46.38174
v 57.91743 13.89768 -46.38174
v 57.91743 13.66737 -46.60867
v 57.68678 13.66737 -46.60867
v 57.91743 -26.06029 -46.60867
v 57.68678 -26.06029 -46.60867
v 57.91743 13.66737 -46.38174
v 57.91743 13.66737 -46.60867
v 57.91743 -26.06029 -46.38174
v 57.91743 -26.06029 -46.60867
v 57.68678 13.66737 -46.60867
v 57.68678 13.66737 -46.38174
v 57.68678 -26.06029 -46.60867
v 57.68678 -26.06029 -46.38174
v 57.68678 13.66737 -46.38174
v 57.91743 13.66737 -46.38174
v 57.68678 -26.06029 -46.38174
v 57.91743 -26.06029 -46.38174

vn 0 0 1
vn 0 0 1
vn 0 0 1
vn 0 0 1
vn -1 0 0
vn -1 0 0
vn -1 0 0
vn -1 0 0
vn 0 0 -1
vn 0 0 -1
vn 0 0 -1
vn 0 0 -1
vn 1 0 0
vn 1 0 0
vn 1 0 0
vn 1 0 0
vn 0 0.9999999 0
vn 0 0.9999999 0
vn 0 0.9999999 0
vn 0 0.9999999 0
vn 0 -0.9999999 0
vn 0 -0.9999999 0
vn 0 -0.9999999 0
vn 0 -0.9999999 0
vn 0 0 1
vn 0 0 1
vn 0 0 1
vn 0 0 1
vn 1 0 0
vn 1 0 0
vn 1 0 0
vn 1 0 0
vn -1 0 0
vn -1 0 0
vn -1 0 0
vn -1 0 0
vn 0 0 -1
vn 0 0 -1
vn 0 0 -1
vn 0 0 -1
vn 0 0 0
vn 0 0 0
vn 0 0 0
vn 0 0 0
vn 0 -0.9990582 0.04339004
vn 0 -0.9990582 0.04339004
vn 0 -0.9990582 0.04339004
vn 0 -0.9990582 0.04339004
vn 1 0 0
vn 1 0 0
vn 1 0 0
vn 1 0 0
vn -1 0 0
vn -1 0 0
vn -1 0 0
vn -1 0 0
vn 0 0.9990582 -0.04339004
vn 0 0.9990582 -0.04339004
vn 0 0.9990582 -0.04339004
vn 0 0.9990582 -0.04339004
vn 0 -0.999343 -0.03624307
vn 0 -0.999343 -0.03624307
vn 0 -0.999343 -0.03624307
vn 0 -0.999343 -0.03624307
vn 1 0 0
vn 1 0 0
vn 1 0 0
vn 1 0 0
vn -1 0 0
vn -1 0 0
vn -1 0 0
vn -1 0 0
vn 0 0.999343 0.03624307
vn 0 0.999343 0.03624307
vn 0 0.999343 0.03624307
vn 0 0.999343 0.03624307
vn 0 -1 0
vn 0 -1 0
vn 0 -1 0
vn 0 -1 0
vn 1 0 0
vn 1 0 0
vn 1 0 0
vn 1 0 0
vn -1 0 0
vn -1 0 0
vn -1 0 0
vn -1 0 0
vn 0 1 0
vn 0 1 0
vn 0 1 0
vn 0 1 0
vn 0 9.60212E-08 -1
vn 0 9.60212E-08 -1
vn 0 9.60212E-08 -1
vn 0 9.60212E-08 -1
vn 1 0 0
vn 1 0 0
vn 1 0 0
vn 1 0 0
vn -1 0 0
vn -1 0 0
vn -1 0 0
vn -1 0 0
vn 0 -9.60212E-08 1
vn 0 -9.60212E-08 1
vn 0 -9.60212E-08 1
vn 0 -9.60212E-08 1

vt 0.7488667 -173.5716
vt -1.557614 -173.5716
vt 0.7488667 213.4706
vt -1.557614 213.4706
vt 0.7016388 -173.5716
vt -1.518973 -173.5716
vt 0.7016388 213.4706
vt -1.518973 213.4706
vt 0.7488667 -173.5716
vt -1.557614 -173.5716
vt 0.7488667 213.4706
vt -1.557614 213.4706
vt 0.7016388 -173.5716
vt -1.518973 -173.5716
vt 0.7016388 213.4706
vt -1.518973 213.4706
vt -1.557614 1.818728
vt 0.7488667 1.818728
vt -1.557614 -0.4018839
vt 0.7488667 -0.4018839
vt 0.7488667 -0.4018839
vt -1.557614 -0.4018839
vt 0.7488667 1.818728
vt -1.557614 1.818728
vt 0.7488667 -0.4390314
vt -1.557614 -0.4390314
vt 0.7488667 1.86413
vt -1.557614 1.86413
vt 0.7016388 -0.4390314
vt -1.518973 -0.4390314
vt 0.7016388 1.86413
vt -1.518973 1.86413
vt 0.7016388 -0.4390314
vt -1.518973 -0.4390314
vt 0.7016388 1.86413
vt -1.518973 1.86413
vt 0.7488667 -0.4390314
vt -1.557614 -0.4390314
vt 0.7488667 1.86413
vt -1.557614 1.86413
vt -0.5196975 0.5973913
vt -0.5196975 0.5973913
vt -0.5196975 0.5973913
vt -0.5196975 0.5973913
vt 0.7488667 -47.76249
vt -1.557614 -47.76249
vt 0.7488667 59.70392
vt -1.557614 59.70392
vt 58.53115 -0.2342108
vt 58.53115 -2.537372
vt -48.83403 4.428761
vt -48.83403 2.125599
vt -48.74181 -2.989691
vt -48.74181 -0.6865299
vt 58.62338 1.67328
vt 58.62338 3.976442
vt 0.7488667 -47.76248
vt -1.557614 -47.76248
vt 0.7488667 59.70391
vt -1.557614 59.70391
vt 0.7488667 -47.89379
vt -1.557614 -47.89379
vt 0.7488667 59.86439
vt -1.557614 59.86439
vt 58.70836 4.012148
vt 58.70836 1.708987
vt -48.97902 0.106661
vt -48.97902 -2.196501
vt -48.97902 1.708987
vt -48.97902 4.012148
vt 58.70836 -2.196501
vt 58.70836 0.106661
vt 0.7488667 -47.89379
vt -1.557614 -47.89379
vt 0.7488667 59.86439
vt -1.557614 59.86439
vt 0.7488667 -0.4237879
vt -1.557614 -0.4237879
vt 0.7488667 1.845499
vt -1.557614 1.845499
vt 0.7284104 1.86413
vt 0.7284104 -0.4390314
vt -1.540877 1.86413
vt -1.540877 -0.4390314
vt -1.540877 -0.4390314
vt -1.540877 1.86413
vt 0.7284104 -0.4390314
vt 0.7284104 1.86413
vt 0.7488667 -0.4237879
vt -1.557614 -0.4237879
vt 0.7488667 1.845499
vt -1.557614 1.845499
vt -1.557614 219.0995
vt 0.7488667 219.0995
vt -1.557614 -178.1771
vt 0.7488667 -178.1771
vt -1.540894 219.0995
vt 0.7283932 219.0995
vt -1.540856 -178.1771
vt 0.7284313 -178.1771
vt -1.540856 219.0995
vt 0.7284313 219.0995
vt -1.540894 -178.1771
vt 0.7283932 -178.1771
vt -1.557614 219.0995
vt 0.7488667 219.0995
vt -1.557614 -178.1771
vt 0.7488667 -178.1771

usemtl Light_orange glow 1
usemap Light_orange glow 1
f 2/2/2 1/1/1 3/3/3
f 4/4/4 2/2/2 3/3/3
f 6/6/6 5/5/5 7/7/7
f 8/8/8 6/6/6 7/7/7
f 10/10/10 9/9/9 11/11/11
f 12/12/12 10/10/10 11/11/11
f 14/14/14 13/13/13 15/15/15
f 16/16/16 14/14/14 15/15/15
f 18/18/18 17/17/17 19/19/19
f 20/20/20 18/18/18 19/19/19
f 22/22/22 21/21/21 23/23/23
f 24/24/24 22/22/22 23/23/23
f 26/26/26 25/25/25 27/27/27
f 28/28/28 26/26/26 27/27/27
f 30/30/30 29/29/29 31/31/31
f 32/32/32 30/30/30 31/31/31
f 34/34/34 33/33/33 35/35/35
f 36/36/36 34/34/34 35/35/35
f 38/38/38 37/37/37 39/39/39
f 40/40/40 38/38/38 39/39/39
f 42/42/42 41/41/41 41/41/41
f 42/42/42 42/42/42 41/41/41
f 41/41/41 43/43/43 43/43/43
f 41/41/41 41/41/41 43/43/43
f 44/44/44 42/42/42 42/42/42
f 44/44/44 44/44/44 42/42/42
f 43/43/43 44/44/44 44/44/44
f 43/43/43 43/43/43 44/44/44
f 46/46/46 45/45/45 47/47/47
f 48/48/48 46/46/46 47/47/47
f 50/50/50 49/49/49 51/51/51
f 52/52/52 50/50/50 51/51/51
f 54/54/54 53/53/53 55/55/55
f 56/56/56 54/54/54 55/55/55
f 58/58/58 57/57/57 59/59/59
f 60/60/60 58/58/58 59/59/59
f 62/62/62 61/61/61 63/63/63
f 64/64/64 62/62/62 63/63/63
f 66/66/66 65/65/65 67/67/67
f 68/68/68 66/66/66 67/67/67
f 70/70/70 69/69/69 71/71/71
f 72/72/72 70/70/70 71/71/71
f 74/74/74 73/73/73 75/75/75
f 76/76/76 74/74/74 75/75/75
f 78/78/78 77/77/77 79/79/79
f 80/80/80 78/78/78 79/79/79
f 82/82/82 81/81/81 83/83/83
f 84/84/84 82/82/82 83/83/83
f 86/86/86 85/85/85 87/87/87
f 88/88/88 86/86/86 87/87/87
f 90/90/90 89/89/89 91/91/91
f 92/92/92 90/90/90 91/91/91
f 94/94/94 93/93/93 95/95/95
f 96/96/96 94/94/94 95/95/95
f 98/98/98 97/97/97 99/99/99
f 100/100/100 98/98/98 99/99/99
f 102/102/102 101/101/101 103/103/103
f 104/104/104 102/102/102 103/103/103
f 106/106/106 105/105/105 107/107/107
f 108/108/108 106/106/106 107/107/107
