mtllib ./front.All files.mtl
g Front
v 57.83327 -5.193434 -68.01581
v 57.83327 -5.193434 -78.25294
v 57.83327 42.58082 -78.25294
v 58 42.99656 -68.0158
v 57.83327 -4.998602 -46.64346
v 57.83327 -4.998602 -35.50824
v 57.83327 -25.42576 -35.50824
v 57.83327 -25.42576 -46.64346
v 57.84363 42.83369 -35.50824
v 57.83327 15.2411 -13.2378
v 57.83327 -4.998602 -35.50824
v 57.83327 -25.42576 -13.2378
v 58 42.99656 -68.0158
v 58 42.91174 -57.77868
v 57.83327 13.46021 -68.0158
v 58 13.8235 -57.77869
v 58 42.91174 -57.77868
v 58 42.94116 -46.64346
v 58 13.8235 -57.77869
v 57.83327 13.46021 -46.64346
v 57.83327 -5.193434 -68.01581
v 57.83327 -25.42576 -68.01581
v 57.83327 -15.3096 -86.09126
v 57.83327 -25.42576 -86.09126
v 57.83327 -5.193434 -86.09126
v 57.83327 42.58082 -78.25294
v 57.83327 15.21539 -98.7272
v 57.83327 55.68005 -98.7272
v 57.83327 55.68005 -78.25294
v 57.83327 15.21539 -13.2378
v 57.83327 42.81487 -35.50824
v 57.83327 55.68005 -35.50824
v 57.83327 55.68005 -13.2378
v 57.83327 -5.016928 -35.50824
v 57.83327 -5.016928 -46.64346
v 57.83327 42.81487 -35.50824
v 58 42.94116 -46.64346
v 57.83327 -5.016928 -78.25294
v 57.83327 -25.24925 -78.25294
v 57.83327 -25.24925 -98.7272
v 57.83327 42.58082 -78.25294
v 57.83327 55.68005 -78.25294
v 58 42.99656 -68.0158
v 57.83327 55.68005 -57.77867
v 58 42.91174 -57.77868
v 58 42.91174 -57.77868
v 57.83327 55.68005 -57.77867
v 58 42.94116 -46.64346
v 57.83327 55.68005 -35.50824
v 57.83327 42.81487 -35.50824
v 57.83327 55.68005 -13.2378
v 57.83327 55.68005 -57.77867
v 57.83327 78.61671 -13.23784
v 57.83327 78.61671 -57.77871
v 57.83327 55.68005 -57.77867
v 57.83327 55.68005 -98.7272
v 57.83327 78.61671 -57.77871
v 57.83327 78.61671 -98.7272

vn -0.9999655 0.001737396 0.008108296
vn -1 -5.98863E-08 0
vn -0.9999655 0.001737396 0.008108296
vn -0.9998637 0.003459509 0.01614499
vn -1 0 0
vn -1 0 0
vn -1 0 0
vn -1 0 0
vn -1 0.0002166051 -0.0001968539
vn -1 0.0001170714 -0.0001063962
vn -1 9.511676E-05 -8.644352E-05
vn -1 0 0
vn -0.999984 0.005645043 4.676787E-05
vn -0.9999632 0.002844036 0.008104745
vn -0.9999632 0.002844036 0.008104745
vn -0.9998674 -2.13569E-09 0.0162853
vn -1 0 0
vn -0.9999682 0.002846742 -0.007443987
vn -0.9999682 0.002846742 -0.007443987
vn -0.9998747 0.005655035 -0.01478744
vn -1 0 0
vn -1 0 0
vn -1 0 0
vn -1 0 0
vn -1 0 0
vn -1 -1.780443E-08 3.518809E-08
vn -0.9999999 0 4.657918E-08
vn -1 -1.780443E-08 3.518809E-08
vn -1 -7.280384E-08 0
vn -1 0 0
vn -1 0 0
vn -1 0 0
vn -1 0 0
vn -1 0 0
vn -0.9999705 0.001740638 -0.007476985
vn -0.9999705 0.001740638 -0.007476985
vn -0.9998825 0.003476386 -0.01493297
vn -1 8.806286E-09 8.702227E-09
vn -1 0 0
vn -1 0 0
vn -0.9998673 -7.279417E-08 0.01628555
vn -0.9999471 -0.008669011 0.005546301
vn -0.9999438 -0.00976283 0.004137118
vn -0.9999141 -0.01311589 -3.622052E-05
vn -0.9999148 -0.01305782 -0.0001081805
vn -0.9999148 -0.01305782 3.449838E-05
vn -0.9999144 -0.0130779 1.151715E-05
vn -0.999945 -0.009786371 -0.003760307
vn -0.9999495 -0.008696876 -0.005024011
vn -0.9998879 4.439537E-09 -0.01497247
vn -0.9999999 0 0
vn -0.9999999 0 0
vn -0.9999999 0 0
vn -1 0 0
vn -1 0 0
vn -1 0 0
vn -1 0 0
vn -1 0 0

vt 30.71113 20.05582
vt 20.47409 20.05582
vt 20.47409 67.83008
vt 30.71182 68.24581
vt 11.13523 20.42709
vt 22.27045 20.42709
vt 22.27045 0
vt 11.13523 0
vt 22.27045 68.25919
vt 44.54089 40.66673
vt 22.27045 20.42709
vt 44.54089 0
vt 7.629395E-06 29.53682
vt 10.23713 29.452
vt 0 0
vt 10.23713 0.3642159
vt 3.814697E-06 29.45154
vt 11.13523 29.48096
vt 0 0.3632851
vt 11.13522 1.907349E-06
vt 18.07545 20.23232
vt 18.07545 0
vt 0 10.11616
vt 0 0
vt 0 20.23232
vt 20.47409 67.83008
vt 0 40.46465
vt 0 80.92931
vt 20.47409 80.92931
vt 44.54089 40.64102
vt 22.27045 68.2404
vt 22.27045 81.10555
vt 44.54089 81.10555
vt 22.27045 20.40876
vt 11.13523 20.40876
vt 22.27045 68.2404
vt 11.13523 68.36627
vt 20.47409 20.23232
vt 20.47409 0
vt 0 0
vt 20.47409 67.83008
vt 20.47409 80.92931
vt 30.71182 68.24581
vt 40.94818 80.92931
vt 40.94886 68.161
vt 1.907349E-06 68.33685
vt 1.525879E-05 81.10555
vt 11.13523 68.36627
vt 22.27045 81.10555
vt 22.27045 68.2404
vt 44.54091 -3.814697E-06
vt 3.814697E-05 -3.814697E-06
vt 44.54087 22.93666
vt 0 22.93666
vt 40.94852 -3.814697E-06
vt 0 -3.814697E-06
vt 40.94849 22.93666
vt 0 22.93666

usemtl facade metal 3 jet black
usemap facade metal 3 jet black
f 2/2/2 1/1/1 3/3/3
f 1/1/1 4/4/4 3/3/3
f 6/6/6 5/5/5 7/7/7
f 5/5/5 8/8/8 7/7/7
f 10/10/10 9/9/9 11/11/11
f 12/12/12 10/10/10 11/11/11
f 7/7/7 12/12/12 11/11/11
f 14/14/14 13/13/13 15/15/15
f 16/16/16 14/14/14 15/15/15
f 18/18/18 17/17/17 19/19/19
f 20/20/20 18/18/18 19/19/19
f 22/22/22 21/21/21 23/23/23
f 24/24/24 22/22/22 23/23/23
f 21/21/21 25/25/25 23/23/23
f 27/27/27 26/26/26 28/28/28
f 26/26/26 29/29/29 28/28/28
f 31/31/31 30/30/30 32/32/32
f 32/32/32 30/30/30 33/33/33
f 35/35/35 34/34/34 36/36/36
f 37/37/37 35/35/35 36/36/36
f 26/26/26 27/27/27 38/38/38
f 40/40/40 39/39/39 38/38/38
f 27/27/27 40/40/40 38/38/38
f 42/42/42 41/41/41 43/43/43
f 45/45/45 44/44/44 43/43/43
f 44/44/44 42/42/42 43/43/43
f 47/47/47 46/46/46 48/48/48
f 49/49/49 47/47/47 48/48/48
f 50/50/50 49/49/49 48/48/48
f 52/52/52 51/51/51 53/53/53
f 54/54/54 52/52/52 53/53/53
f 56/56/56 55/55/55 57/57/57
f 58/58/58 56/56/56 57/57/57
