mtllib ./station front-detach 2.All files.mtl
g station front-detach 2
v 57.83327 55.50355 -98.7272
v 57.83327 -29.1765 -98.7272
v 21.37402 55.50355 -98.7272
v 21.37402 -29.1765 -98.7272
v 21.37402 55.50355 -120.789
v 57.83327 55.50355 -120.789
v 21.37402 78.44022 -120.789
v 57.83327 78.44022 -120.789
v 57.83327 55.50355 -98.7272
v 21.37402 55.50355 -98.7272
v 57.83327 78.44022 -98.7272
v 21.37402 78.44022 -98.7272

vn 0 -2.252418E-08 0.9999999
vn 0 -2.252418E-08 0.9999999
vn 0 -2.252418E-08 0.9999999
vn 0 -2.252418E-08 0.9999999
vn 0 3.326287E-07 -1
vn 0 3.326287E-07 -1
vn 0 3.326287E-07 -1
vn 0 3.326287E-07 -1
vn 0 8.315718E-08 1
vn 0 8.315718E-08 1
vn 0 8.315718E-08 1
vn 0 8.315718E-08 1

vt 36.45924 84.68005
vt 36.45924 3.814697E-06
vt 0 84.68005
vt 0 3.814697E-06
vt 36.45924 0
vt 3.814697E-06 0
vt 36.45924 22.93667
vt 3.814697E-06 22.93667
vt 36.45924 0
vt 0 0
vt 36.45924 22.93667
vt 0 22.93667

usemtl actual black
usemap actual black
f 2/2/2 1/1/1 3/3/3
f 4/4/4 2/2/2 3/3/3
f 6/6/6 5/5/5 7/7/7
f 8/8/8 6/6/6 7/7/7
f 10/10/10 9/9/9 11/11/11
f 12/12/12 10/10/10 11/11/11
